<mxfile host="app.diagrams.net" agent="Mozilla/5.0 (Windows NT 10.0; Win64; x64) AppleWebKit/537.36 (KHTML, like Gecko) Chrome/138.0.0.0 Safari/537.36" version="27.1.6">
  <diagram name="Page-1" id="ViSu714XIvuf4PjNnzAD">
    <mxGraphModel dx="2809" dy="952" grid="1" gridSize="10" guides="1" tooltips="1" connect="1" arrows="1" fold="1" page="1" pageScale="1" pageWidth="850" pageHeight="1100" math="0" shadow="0">
      <root>
        <mxCell id="0" />
        <mxCell id="1" parent="0" />
        <mxCell id="etN0elWksDqBeQhYdpG8-1" value="Utilisateur vendeur" style="shape=umlActor;verticalLabelPosition=bottom;verticalAlign=top;html=1;outlineConnect=0;" parent="1" vertex="1">
          <mxGeometry x="-120" y="480" width="30" height="60" as="geometry" />
        </mxCell>
        <mxCell id="etN0elWksDqBeQhYdpG8-2" value="" style="rounded=1;whiteSpace=wrap;html=1;" parent="1" vertex="1">
          <mxGeometry x="-10" y="120" width="830" height="1420" as="geometry" />
        </mxCell>
        <mxCell id="etN0elWksDqBeQhYdpG8-3" value="Système de magasins" style="text;html=1;align=center;verticalAlign=middle;resizable=0;points=[];autosize=1;strokeColor=none;fillColor=none;" parent="1" vertex="1">
          <mxGeometry x="345" y="130" width="140" height="30" as="geometry" />
        </mxCell>
        <mxCell id="etN0elWksDqBeQhYdpG8-4" value="UC2 - Consulter le stock du magasin" style="ellipse;whiteSpace=wrap;html=1;" parent="1" vertex="1">
          <mxGeometry x="355" y="170" width="120" height="80" as="geometry" />
        </mxCell>
        <mxCell id="etN0elWksDqBeQhYdpG8-5" value="Rechercher un produit" style="ellipse;whiteSpace=wrap;html=1;" parent="1" vertex="1">
          <mxGeometry x="355" y="270" width="120" height="80" as="geometry" />
        </mxCell>
        <mxCell id="etN0elWksDqBeQhYdpG8-6" value="Enregistrer une vente" style="ellipse;whiteSpace=wrap;html=1;" parent="1" vertex="1">
          <mxGeometry x="355" y="370" width="120" height="80" as="geometry" />
        </mxCell>
        <mxCell id="etN0elWksDqBeQhYdpG8-7" value="Faire un retour de vente" style="ellipse;whiteSpace=wrap;html=1;" parent="1" vertex="1">
          <mxGeometry x="355" y="470" width="120" height="80" as="geometry" />
        </mxCell>
        <mxCell id="W-3uddpR0ci4YLRUDfYL-1" value="UC2 - Consulter le stock de stock central" style="ellipse;whiteSpace=wrap;html=1;" parent="1" vertex="1">
          <mxGeometry x="355" y="570" width="120" height="80" as="geometry" />
        </mxCell>
        <mxCell id="W-3uddpR0ci4YLRUDfYL-4" value="Faire une demande de réappovisionnement" style="ellipse;whiteSpace=wrap;html=1;" parent="1" vertex="1">
          <mxGeometry x="355" y="770" width="120" height="80" as="geometry" />
        </mxCell>
        <mxCell id="W-3uddpR0ci4YLRUDfYL-6" value="Utilisateur admin" style="shape=umlActor;verticalLabelPosition=bottom;verticalAlign=top;html=1;outlineConnect=0;" parent="1" vertex="1">
          <mxGeometry x="880" y="480" width="30" height="60" as="geometry" />
        </mxCell>
        <mxCell id="W-3uddpR0ci4YLRUDfYL-12" value="UC1 - Générer un rapport consolidé des ventes" style="ellipse;whiteSpace=wrap;html=1;" parent="1" vertex="1">
          <mxGeometry x="355" y="670" width="120" height="80" as="geometry" />
        </mxCell>
        <mxCell id="W-3uddpR0ci4YLRUDfYL-13" value="UC3 - Visualiser les performances des magasins" style="ellipse;whiteSpace=wrap;html=1;" parent="1" vertex="1">
          <mxGeometry x="355" y="870" width="120" height="80" as="geometry" />
        </mxCell>
        <mxCell id="W-3uddpR0ci4YLRUDfYL-16" value="Pour les cas d&#39;utilisation que l&#39;utilisateur vendeur et l&#39;utilisateur admin peuvent faire, l&#39;utilisateur admin a l&#39;option de choisir le numéro du magasin" style="shape=note;whiteSpace=wrap;html=1;backgroundOutline=1;darkOpacity=0.05;" parent="1" vertex="1">
          <mxGeometry x="850" y="120" width="230" height="150" as="geometry" />
        </mxCell>
        <mxCell id="6VOCwua6ZMwWGHD-rE0T-1" value="UC4 – Mettre à jour les produits" style="ellipse;whiteSpace=wrap;html=1;" parent="1" vertex="1">
          <mxGeometry x="355" y="970" width="120" height="80" as="geometry" />
        </mxCell>
        <mxCell id="VBgYRKV1DrC2aMrH_kYI-4" value="Se connecter à son compte" style="ellipse;whiteSpace=wrap;html=1;" parent="1" vertex="1">
          <mxGeometry x="610" y="470" width="120" height="80" as="geometry" />
        </mxCell>
        <mxCell id="VBgYRKV1DrC2aMrH_kYI-5" value="Se connecter à son compte" style="ellipse;whiteSpace=wrap;html=1;" parent="1" vertex="1">
          <mxGeometry x="80" y="470" width="120" height="80" as="geometry" />
        </mxCell>
        <mxCell id="VBgYRKV1DrC2aMrH_kYI-6" value="Se déconnecter" style="ellipse;whiteSpace=wrap;html=1;" parent="1" vertex="1">
          <mxGeometry x="355" y="1090" width="120" height="80" as="geometry" />
        </mxCell>
        <mxCell id="VBgYRKV1DrC2aMrH_kYI-7" value="" style="endArrow=none;html=1;rounded=0;entryX=0;entryY=0.5;entryDx=0;entryDy=0;exitX=0.5;exitY=0.5;exitDx=0;exitDy=0;exitPerimeter=0;" parent="1" source="etN0elWksDqBeQhYdpG8-1" target="VBgYRKV1DrC2aMrH_kYI-5" edge="1">
          <mxGeometry width="50" height="50" relative="1" as="geometry">
            <mxPoint x="-130" y="590" as="sourcePoint" />
            <mxPoint x="-80" y="540" as="targetPoint" />
          </mxGeometry>
        </mxCell>
        <mxCell id="VBgYRKV1DrC2aMrH_kYI-8" value="" style="endArrow=none;html=1;rounded=0;entryX=0.5;entryY=0.5;entryDx=0;entryDy=0;entryPerimeter=0;exitX=1;exitY=0.5;exitDx=0;exitDy=0;" parent="1" source="VBgYRKV1DrC2aMrH_kYI-4" target="W-3uddpR0ci4YLRUDfYL-6" edge="1">
          <mxGeometry width="50" height="50" relative="1" as="geometry">
            <mxPoint x="920" y="480" as="sourcePoint" />
            <mxPoint x="970" y="430" as="targetPoint" />
          </mxGeometry>
        </mxCell>
        <mxCell id="VBgYRKV1DrC2aMrH_kYI-9" value="La connexion à son compte est pareille pour les utilisateurs vendeurs et admin et client, cette fonctionnalité est réprésentée 3 fois pour faciliter la compréhension du diagramme et pour différencier ce que chacun d&#39;entre eux peux faire" style="shape=note;whiteSpace=wrap;html=1;backgroundOutline=1;darkOpacity=0.05;" parent="1" vertex="1">
          <mxGeometry x="850" y="280" width="230" height="170" as="geometry" />
        </mxCell>
        <mxCell id="VBgYRKV1DrC2aMrH_kYI-10" value="" style="endArrow=none;html=1;rounded=0;entryX=1;entryY=0.5;entryDx=0;entryDy=0;exitX=0;exitY=0.5;exitDx=0;exitDy=0;" parent="1" source="VBgYRKV1DrC2aMrH_kYI-6" target="VBgYRKV1DrC2aMrH_kYI-5" edge="1">
          <mxGeometry width="50" height="50" relative="1" as="geometry">
            <mxPoint x="250" y="540" as="sourcePoint" />
            <mxPoint x="300" y="490" as="targetPoint" />
          </mxGeometry>
        </mxCell>
        <mxCell id="VBgYRKV1DrC2aMrH_kYI-11" value="" style="endArrow=none;html=1;rounded=0;entryX=0;entryY=0.5;entryDx=0;entryDy=0;exitX=1;exitY=0.5;exitDx=0;exitDy=0;" parent="1" source="VBgYRKV1DrC2aMrH_kYI-5" target="etN0elWksDqBeQhYdpG8-4" edge="1">
          <mxGeometry width="50" height="50" relative="1" as="geometry">
            <mxPoint x="-130" y="390" as="sourcePoint" />
            <mxPoint x="-80" y="340" as="targetPoint" />
          </mxGeometry>
        </mxCell>
        <mxCell id="VBgYRKV1DrC2aMrH_kYI-12" value="" style="endArrow=none;html=1;rounded=0;entryX=0;entryY=0.5;entryDx=0;entryDy=0;exitX=1;exitY=0.5;exitDx=0;exitDy=0;" parent="1" source="VBgYRKV1DrC2aMrH_kYI-5" target="etN0elWksDqBeQhYdpG8-5" edge="1">
          <mxGeometry width="50" height="50" relative="1" as="geometry">
            <mxPoint x="-270" y="750" as="sourcePoint" />
            <mxPoint x="-220" y="700" as="targetPoint" />
          </mxGeometry>
        </mxCell>
        <mxCell id="VBgYRKV1DrC2aMrH_kYI-13" value="" style="endArrow=none;html=1;rounded=0;entryX=0;entryY=0.5;entryDx=0;entryDy=0;exitX=1;exitY=0.5;exitDx=0;exitDy=0;" parent="1" source="VBgYRKV1DrC2aMrH_kYI-5" target="etN0elWksDqBeQhYdpG8-6" edge="1">
          <mxGeometry width="50" height="50" relative="1" as="geometry">
            <mxPoint x="-390" y="820" as="sourcePoint" />
            <mxPoint x="-340" y="770" as="targetPoint" />
          </mxGeometry>
        </mxCell>
        <mxCell id="VBgYRKV1DrC2aMrH_kYI-14" value="" style="endArrow=none;html=1;rounded=0;entryX=0;entryY=0.5;entryDx=0;entryDy=0;exitX=1;exitY=0.5;exitDx=0;exitDy=0;" parent="1" source="VBgYRKV1DrC2aMrH_kYI-5" target="etN0elWksDqBeQhYdpG8-7" edge="1">
          <mxGeometry width="50" height="50" relative="1" as="geometry">
            <mxPoint x="-180" y="760" as="sourcePoint" />
            <mxPoint x="-130" y="710" as="targetPoint" />
          </mxGeometry>
        </mxCell>
        <mxCell id="VBgYRKV1DrC2aMrH_kYI-15" value="" style="endArrow=none;html=1;rounded=0;entryX=0;entryY=0.5;entryDx=0;entryDy=0;exitX=1;exitY=0.5;exitDx=0;exitDy=0;" parent="1" source="VBgYRKV1DrC2aMrH_kYI-5" target="W-3uddpR0ci4YLRUDfYL-1" edge="1">
          <mxGeometry width="50" height="50" relative="1" as="geometry">
            <mxPoint x="-210" y="710" as="sourcePoint" />
            <mxPoint x="-160" y="660" as="targetPoint" />
          </mxGeometry>
        </mxCell>
        <mxCell id="VBgYRKV1DrC2aMrH_kYI-16" value="" style="endArrow=none;html=1;rounded=0;entryX=0;entryY=0.5;entryDx=0;entryDy=0;exitX=1;exitY=0.5;exitDx=0;exitDy=0;" parent="1" source="VBgYRKV1DrC2aMrH_kYI-5" target="W-3uddpR0ci4YLRUDfYL-4" edge="1">
          <mxGeometry width="50" height="50" relative="1" as="geometry">
            <mxPoint x="-180" y="760" as="sourcePoint" />
            <mxPoint x="-130" y="710" as="targetPoint" />
          </mxGeometry>
        </mxCell>
        <mxCell id="VBgYRKV1DrC2aMrH_kYI-17" value="" style="endArrow=none;html=1;rounded=0;entryX=0;entryY=0.5;entryDx=0;entryDy=0;exitX=1;exitY=0.5;exitDx=0;exitDy=0;" parent="1" source="etN0elWksDqBeQhYdpG8-4" target="VBgYRKV1DrC2aMrH_kYI-4" edge="1">
          <mxGeometry width="50" height="50" relative="1" as="geometry">
            <mxPoint x="-250" y="790" as="sourcePoint" />
            <mxPoint x="-200" y="740" as="targetPoint" />
          </mxGeometry>
        </mxCell>
        <mxCell id="VBgYRKV1DrC2aMrH_kYI-18" value="" style="endArrow=none;html=1;rounded=0;entryX=0;entryY=0.5;entryDx=0;entryDy=0;exitX=1;exitY=0.5;exitDx=0;exitDy=0;" parent="1" source="etN0elWksDqBeQhYdpG8-5" target="VBgYRKV1DrC2aMrH_kYI-4" edge="1">
          <mxGeometry width="50" height="50" relative="1" as="geometry">
            <mxPoint x="-320" y="800" as="sourcePoint" />
            <mxPoint x="-270" y="750" as="targetPoint" />
          </mxGeometry>
        </mxCell>
        <mxCell id="VBgYRKV1DrC2aMrH_kYI-19" value="" style="endArrow=none;html=1;rounded=0;entryX=0;entryY=0.5;entryDx=0;entryDy=0;exitX=1;exitY=0.5;exitDx=0;exitDy=0;" parent="1" source="etN0elWksDqBeQhYdpG8-6" target="VBgYRKV1DrC2aMrH_kYI-4" edge="1">
          <mxGeometry width="50" height="50" relative="1" as="geometry">
            <mxPoint x="-160" y="760" as="sourcePoint" />
            <mxPoint x="-110" y="710" as="targetPoint" />
          </mxGeometry>
        </mxCell>
        <mxCell id="VBgYRKV1DrC2aMrH_kYI-20" value="" style="endArrow=none;html=1;rounded=0;entryX=0;entryY=0.5;entryDx=0;entryDy=0;exitX=1;exitY=0.5;exitDx=0;exitDy=0;" parent="1" source="etN0elWksDqBeQhYdpG8-7" target="VBgYRKV1DrC2aMrH_kYI-4" edge="1">
          <mxGeometry width="50" height="50" relative="1" as="geometry">
            <mxPoint x="-250" y="780" as="sourcePoint" />
            <mxPoint x="-200" y="730" as="targetPoint" />
          </mxGeometry>
        </mxCell>
        <mxCell id="VBgYRKV1DrC2aMrH_kYI-21" value="" style="endArrow=none;html=1;rounded=0;entryX=0;entryY=0.5;entryDx=0;entryDy=0;exitX=1;exitY=0.5;exitDx=0;exitDy=0;" parent="1" source="W-3uddpR0ci4YLRUDfYL-1" target="VBgYRKV1DrC2aMrH_kYI-4" edge="1">
          <mxGeometry width="50" height="50" relative="1" as="geometry">
            <mxPoint x="-260" y="870" as="sourcePoint" />
            <mxPoint x="-210" y="820" as="targetPoint" />
          </mxGeometry>
        </mxCell>
        <mxCell id="VBgYRKV1DrC2aMrH_kYI-22" value="" style="endArrow=none;html=1;rounded=0;entryX=0;entryY=0.5;entryDx=0;entryDy=0;exitX=1;exitY=0.5;exitDx=0;exitDy=0;" parent="1" source="W-3uddpR0ci4YLRUDfYL-12" target="VBgYRKV1DrC2aMrH_kYI-4" edge="1">
          <mxGeometry width="50" height="50" relative="1" as="geometry">
            <mxPoint x="-340" y="880" as="sourcePoint" />
            <mxPoint x="-290" y="830" as="targetPoint" />
          </mxGeometry>
        </mxCell>
        <mxCell id="VBgYRKV1DrC2aMrH_kYI-23" value="" style="endArrow=none;html=1;rounded=0;entryX=0;entryY=0.5;entryDx=0;entryDy=0;exitX=1;exitY=0.5;exitDx=0;exitDy=0;" parent="1" source="W-3uddpR0ci4YLRUDfYL-4" target="VBgYRKV1DrC2aMrH_kYI-4" edge="1">
          <mxGeometry width="50" height="50" relative="1" as="geometry">
            <mxPoint x="-320" y="830" as="sourcePoint" />
            <mxPoint x="-270" y="780" as="targetPoint" />
          </mxGeometry>
        </mxCell>
        <mxCell id="VBgYRKV1DrC2aMrH_kYI-24" value="" style="endArrow=none;html=1;rounded=0;entryX=0;entryY=0.5;entryDx=0;entryDy=0;exitX=1;exitY=0.5;exitDx=0;exitDy=0;" parent="1" source="6VOCwua6ZMwWGHD-rE0T-1" target="VBgYRKV1DrC2aMrH_kYI-4" edge="1">
          <mxGeometry width="50" height="50" relative="1" as="geometry">
            <mxPoint x="-220" y="910" as="sourcePoint" />
            <mxPoint x="-170" y="860" as="targetPoint" />
          </mxGeometry>
        </mxCell>
        <mxCell id="VBgYRKV1DrC2aMrH_kYI-25" value="" style="endArrow=none;html=1;rounded=0;entryX=0;entryY=0.5;entryDx=0;entryDy=0;exitX=1;exitY=0.5;exitDx=0;exitDy=0;" parent="1" source="W-3uddpR0ci4YLRUDfYL-13" target="VBgYRKV1DrC2aMrH_kYI-4" edge="1">
          <mxGeometry width="50" height="50" relative="1" as="geometry">
            <mxPoint x="-290" y="830" as="sourcePoint" />
            <mxPoint x="-240" y="780" as="targetPoint" />
          </mxGeometry>
        </mxCell>
        <mxCell id="VBgYRKV1DrC2aMrH_kYI-26" value="" style="endArrow=none;html=1;rounded=0;entryX=0;entryY=0.5;entryDx=0;entryDy=0;exitX=1;exitY=0.5;exitDx=0;exitDy=0;" parent="1" source="VBgYRKV1DrC2aMrH_kYI-6" target="VBgYRKV1DrC2aMrH_kYI-4" edge="1">
          <mxGeometry width="50" height="50" relative="1" as="geometry">
            <mxPoint x="-200" y="920" as="sourcePoint" />
            <mxPoint x="-150" y="870" as="targetPoint" />
          </mxGeometry>
        </mxCell>
        <mxCell id="aojrZKMgyWi7c8YNDojm-1" value="Utilisateur client" style="shape=umlActor;verticalLabelPosition=bottom;verticalAlign=top;html=1;outlineConnect=0;" vertex="1" parent="1">
          <mxGeometry x="-160" y="1320" width="30" height="60" as="geometry" />
        </mxCell>
        <mxCell id="aojrZKMgyWi7c8YNDojm-4" value="Se connecter à son compte" style="ellipse;whiteSpace=wrap;html=1;" vertex="1" parent="1">
          <mxGeometry x="100" y="1250" width="120" height="80" as="geometry" />
        </mxCell>
        <mxCell id="aojrZKMgyWi7c8YNDojm-5" value="Créer un nouveau compte" style="ellipse;whiteSpace=wrap;html=1;" vertex="1" parent="1">
          <mxGeometry x="100" y="1380" width="120" height="80" as="geometry" />
        </mxCell>
        <mxCell id="aojrZKMgyWi7c8YNDojm-7" value="" style="endArrow=none;html=1;rounded=0;fontSize=12;startSize=8;endSize=8;curved=1;entryX=0;entryY=0.5;entryDx=0;entryDy=0;exitX=0.5;exitY=0.5;exitDx=0;exitDy=0;exitPerimeter=0;" edge="1" parent="1" source="aojrZKMgyWi7c8YNDojm-1" target="aojrZKMgyWi7c8YNDojm-4">
          <mxGeometry width="50" height="50" relative="1" as="geometry">
            <mxPoint x="-210" y="1590" as="sourcePoint" />
            <mxPoint x="-160" y="1540" as="targetPoint" />
          </mxGeometry>
        </mxCell>
        <mxCell id="aojrZKMgyWi7c8YNDojm-8" value="" style="endArrow=none;html=1;rounded=0;fontSize=12;startSize=8;endSize=8;curved=1;entryX=0;entryY=0.5;entryDx=0;entryDy=0;exitX=0.5;exitY=0.5;exitDx=0;exitDy=0;exitPerimeter=0;" edge="1" parent="1" source="aojrZKMgyWi7c8YNDojm-1" target="aojrZKMgyWi7c8YNDojm-5">
          <mxGeometry width="50" height="50" relative="1" as="geometry">
            <mxPoint x="-320" y="1500" as="sourcePoint" />
            <mxPoint x="-270" y="1450" as="targetPoint" />
          </mxGeometry>
        </mxCell>
        <mxCell id="aojrZKMgyWi7c8YNDojm-10" value="Voir l&#39;inventaire des produits" style="ellipse;whiteSpace=wrap;html=1;" vertex="1" parent="1">
          <mxGeometry x="355" y="1230" width="120" height="80" as="geometry" />
        </mxCell>
        <mxCell id="aojrZKMgyWi7c8YNDojm-11" value="Gérer son panier&lt;span style=&quot;color: rgba(0, 0, 0, 0); font-family: monospace; font-size: 0px; text-align: start; text-wrap-mode: nowrap;&quot;&gt;%3CmxGraphModel%3E%3Croot%3E%3CmxCell%20id%3D%220%22%2F%3E%3CmxCell%20id%3D%221%22%20parent%3D%220%22%2F%3E%3CmxCell%20id%3D%222%22%20value%3D%22Se%20d%C3%A9connecter%22%20style%3D%22ellipse%3BwhiteSpace%3Dwrap%3Bhtml%3D1%3B%22%20vertex%3D%221%22%20parent%3D%221%22%3E%3CmxGeometry%20x%3D%22345%22%20y%3D%221560%22%20width%3D%22120%22%20height%3D%2280%22%20as%3D%22geometry%22%2F%3E%3C%2FmxCell%3E%3C%2Froot%3E%3C%2FmxGraphModel%3E&lt;/span&gt;" style="ellipse;whiteSpace=wrap;html=1;" vertex="1" parent="1">
          <mxGeometry x="355" y="1340" width="120" height="80" as="geometry" />
        </mxCell>
        <mxCell id="aojrZKMgyWi7c8YNDojm-12" value="Confirmer sa commande" style="ellipse;whiteSpace=wrap;html=1;" vertex="1" parent="1">
          <mxGeometry x="355" y="1440" width="120" height="80" as="geometry" />
        </mxCell>
        <mxCell id="aojrZKMgyWi7c8YNDojm-13" value="" style="endArrow=none;html=1;rounded=0;fontSize=12;startSize=8;endSize=8;curved=1;entryX=0;entryY=0.5;entryDx=0;entryDy=0;exitX=1;exitY=0.5;exitDx=0;exitDy=0;" edge="1" parent="1" source="aojrZKMgyWi7c8YNDojm-4" target="aojrZKMgyWi7c8YNDojm-10">
          <mxGeometry width="50" height="50" relative="1" as="geometry">
            <mxPoint x="-380" y="1250" as="sourcePoint" />
            <mxPoint x="-330" y="1200" as="targetPoint" />
          </mxGeometry>
        </mxCell>
        <mxCell id="aojrZKMgyWi7c8YNDojm-14" value="" style="endArrow=none;html=1;rounded=0;fontSize=12;startSize=8;endSize=8;curved=1;entryX=0;entryY=0.5;entryDx=0;entryDy=0;exitX=1;exitY=0.5;exitDx=0;exitDy=0;" edge="1" parent="1" source="aojrZKMgyWi7c8YNDojm-4" target="VBgYRKV1DrC2aMrH_kYI-6">
          <mxGeometry width="50" height="50" relative="1" as="geometry">
            <mxPoint x="-330" y="1540" as="sourcePoint" />
            <mxPoint x="-280" y="1490" as="targetPoint" />
          </mxGeometry>
        </mxCell>
        <mxCell id="aojrZKMgyWi7c8YNDojm-15" value="" style="endArrow=none;html=1;rounded=0;fontSize=12;startSize=8;endSize=8;curved=1;entryX=0;entryY=0.5;entryDx=0;entryDy=0;exitX=1;exitY=0.5;exitDx=0;exitDy=0;" edge="1" parent="1" source="aojrZKMgyWi7c8YNDojm-4" target="aojrZKMgyWi7c8YNDojm-11">
          <mxGeometry width="50" height="50" relative="1" as="geometry">
            <mxPoint x="-320" y="1540" as="sourcePoint" />
            <mxPoint x="-270" y="1490" as="targetPoint" />
          </mxGeometry>
        </mxCell>
        <mxCell id="aojrZKMgyWi7c8YNDojm-16" value="" style="endArrow=none;html=1;rounded=0;fontSize=12;startSize=8;endSize=8;curved=1;entryX=0;entryY=0.5;entryDx=0;entryDy=0;" edge="1" parent="1" target="aojrZKMgyWi7c8YNDojm-12">
          <mxGeometry width="50" height="50" relative="1" as="geometry">
            <mxPoint x="220" y="1300" as="sourcePoint" />
            <mxPoint x="-150" y="1530" as="targetPoint" />
          </mxGeometry>
        </mxCell>
      </root>
    </mxGraphModel>
  </diagram>
</mxfile>
